<?xml version="1.0" encoding="UTF-8" standalone="no"?>
<!-- Created with Inkscape (http://www.inkscape.org/) -->

<svg
   xmlns:dc="http://purl.org/dc/elements/1.1/"
   xmlns:cc="http://creativecommons.org/ns#"
   xmlns:rdf="http://www.w3.org/1999/02/22-rdf-syntax-ns#"
   xmlns:svg="http://www.w3.org/2000/svg"
   xmlns="http://www.w3.org/2000/svg"
   xmlns:xlink="http://www.w3.org/1999/xlink"
   xmlns:sodipodi="http://sodipodi.sourceforge.net/DTD/sodipodi-0.dtd"
   xmlns:inkscape="http://www.inkscape.org/namespaces/inkscape"
   width="64.709633"
   height="73.801994"
   id="svg2"
   version="1.1"
   inkscape:version="0.48.4 r9939"
   sodipodi:docname="dino.svg">
  <defs
     id="defs4">
    <linearGradient
       id="linearGradient3832">
      <stop
         id="stop3834"
         offset="0"
         style="stop-color:#009827;stop-opacity:1;" />
      <stop
         id="stop3836"
         offset="1"
         style="stop-color:#1dc8b1;stop-opacity:1;" />
    </linearGradient>
    <linearGradient
       id="linearGradient3800">
      <stop
         style="stop-color:#009827;stop-opacity:1;"
         offset="0"
         id="stop3802" />
      <stop
         style="stop-color:#1d7854;stop-opacity:1;"
         offset="1"
         id="stop3804" />
    </linearGradient>
    <radialGradient
       inkscape:collect="always"
       xlink:href="#linearGradient3800"
       id="radialGradient3806"
       cx="40.289948"
       cy="57.182804"
       fx="40.289948"
       fy="57.182804"
       r="16.340925"
       gradientTransform="matrix(1,0,0,1.1149034,0,-6.5704996)"
       gradientUnits="userSpaceOnUse" />
    <radialGradient
       inkscape:collect="always"
       xlink:href="#linearGradient3832"
       id="radialGradient3838"
       cx="38.674023"
       cy="27.164804"
       fx="38.674023"
       fy="27.164804"
       r="15.239954"
       gradientTransform="matrix(1,0,0,0.90931312,0,2.4634914)"
       gradientUnits="userSpaceOnUse" />
  </defs>
  <sodipodi:namedview
     id="base"
     pagecolor="#ffffff"
     bordercolor="#666666"
     borderopacity="1.0"
     inkscape:pageopacity="0.0"
     inkscape:pageshadow="2"
     inkscape:zoom="7.9195959"
     inkscape:cx="28.147257"
     inkscape:cy="31.061782"
     inkscape:document-units="px"
     inkscape:current-layer="g3058"
     showgrid="false"
     fit-margin-top="0"
     fit-margin-left="0"
     fit-margin-right="0"
     fit-margin-bottom="0"
     inkscape:window-width="1364"
     inkscape:window-height="946"
     inkscape:window-x="1"
     inkscape:window-y="52"
     inkscape:window-maximized="0" />
  <metadata
     id="metadata7">
    <rdf:RDF>
      <cc:Work
         rdf:about="">
        <dc:format>image/svg+xml</dc:format>
        <dc:type
           rdf:resource="http://purl.org/dc/dcmitype/StillImage" />
        <dc:title />
      </cc:Work>
    </rdf:RDF>
  </metadata>
  <g
     inkscape:label="Layer 1"
     inkscape:groupmode="layer"
     id="layer1"
     transform="translate(-10.595112,-14.207618)">
    <g
       id="g3058">
      <path
         id="path3027"
         transform="translate(3.6613995,2.3878854)"
         style="fill:none;stroke:#000000;stroke-width:1px;stroke-linecap:butt;stroke-linejoin:miter;stroke-opacity:1"
         d="m 30.223214,74.057147 c 0,0 0.03196,-9.562624 1.428571,-14.062499 0.610784,-1.967937 1.84618,-7.843594 9.151786,-7.901786 4.195218,-0.03342 7.901786,0.401785 10.223214,8.705357 1.29815,4.64338 3.035715,15.401786 3.035715,15.401786 M 33.208765,35.515026 c 2.901931,1.939871 4.417563,1.956486 7.709348,2.303137 0.75879,0.01642 6.297754,-1.070124 6.306521,-1.987464 M 42.363273,28.8859 c 0.573793,-1.501884 3.433881,-1.62473 3.282997,0 m -12.437505,0.378808 c 0.07062,-2.581524 3.89917,-1.571375 3.977474,0.189403 m 7.9362,3.764112 c 2.919705,-0.829884 2.43721,-10.568668 -1.97482,-9.462141 -4.39246,2.114043 -1.288565,11.402896 1.97482,9.462141 z m -9.42196,0.0918 c 4.010275,-0.910225 3.596949,-8.373158 -0.222632,-9.404549 -5.091091,0.362582 -3.690857,8.702469 0.222632,9.404549 z m 16.355642,44.038906 c 1.735232,2.378592 1.596159,7.125895 4.892752,7.772799 0.292888,-2.840451 0.05472,-2.673835 0.216968,-4.974586 4.873815,2.719642 6.378877,2.832016 3.623105,-3.536523 2.262177,-0.0124 2.394301,0.01235 3.99528,-0.693061 -2.888206,-1.772739 -4.549867,-4.473078 -7.458069,-4.478982 m -31.955921,1.373312 c -0.922318,1.064718 -4.892302,6.365324 -4.58642,8.866072 5.928628,-1.374031 3.135786,-3.67909 4.781345,2.072842 4.119746,-2.366499 2.642654,-3.862011 6.195068,0.926349 0.62424,-2.093069 0.785987,-7.563234 0.240107,-9.317511 M 26.769041,46.184765 c -3.337427,-1.606631 -6.238838,-5.295889 -8.836668,-7.025011 -0.676096,-4.254196 -1.699549,-5.034293 -3.694285,-8.764359 -2.562669,1.389703 0.696067,2.852564 -0.151875,5.683932 -1.313491,3.984959 -5.2796505,-3.83505 -6.6525005,-0.02093 1.464438,1.299821 7.2204555,3.803298 2.6123935,4.981111 -2.9056005,0.942556 -0.7040515,4.087307 1.554227,2.459872 4.142662,-0.344711 6.829953,3.670448 9.416785,6.294538 1.12667,1.425819 2.254703,2.93763 2.721468,4.724607 M 55.21115,50.54105 c 4.462684,-0.833882 7.267957,-5.069156 7.697256,-9.237789 1.670901,-3.510428 4.176704,-4.891739 4.176704,-4.891739 0.484971,2.091613 -0.997978,3.373347 -0.966166,4.480103 0.396235,1.064926 1.849676,0.978399 4.623452,-0.1334 -1.2923,0.957515 -2.523248,3.063662 -1.991308,4.101936 0.269822,0.526654 0.99322,0.778554 2.392261,0.466425 -1.196015,3.224584 -3.570144,1.953586 -5.652891,4.30393 -2.932256,0.957491 -4.346101,4.39312 -7.858994,4.417217 -0.518268,0.100637 -1.042015,0.172373 -1.567997,0.218258 M 30.285315,38.913463 c -3.377806,4.617061 -4.606338,10.170533 -6.9263,15.960707 0.04084,3.97471 0.267755,14.441194 1.58866,17.897757 3.238512,0.716468 4.385403,1.294281 7.712022,2.691961 1.645151,0.691212 5.805109,-1.660226 8.10913,-1.80587 2.072339,-0.640185 7.957128,4.090232 10.735076,3.502787 2.372538,-0.501713 4.465252,-1.365535 5.360591,-3.242847 0.215915,-3.823017 0.977944,-7.7558 -0.533947,-11.432863 -1.27944,-4.158973 0.541592,-8.785017 -1.815112,-12.664877 -2.260026,-2.91547 -3.764004,-7.726335 -4.017252,-11.473359 M 34.660859,20.80468 c -3.940694,-0.06556 -8.332017,-7.08188 -12.357073,-8.182797 1.111343,3.308814 3.394191,6.19744 3.347209,9.946598 1.44097,4.213884 1.877496,12.521183 1.349047,14.86254 1.426701,1.230522 8.800896,2.493825 12.079521,4.211958 4.123252,0.35914 10.547503,-4.354988 14.731635,-4.001184 -0.273077,-0.845701 -2.469912,-9.372323 -0.984179,-14.222895 -0.04987,-3.560084 1.472795,-5.384655 1.714493,-11.099167 -6.53021,3.069564 -4.594419,6.896742 -8.469144,7.230178 -4.580926,1.86557 -6.80103,2.443038 -11.411509,1.254769 z"
         inkscape:connector-curvature="0"
         sodipodi:nodetypes="cssscccccccccccccccccccccccccccccccccccccccscccccccscscccccccccccccc" />
      <path
         style="fill:url(#radialGradient3806);fill-opacity:1"
         d="M 54.086983,73.015931 C 53.49661,69.532976 52.49406,64.417436 51.991858,62.325493 c -1.54786,-6.447685 -3.669703,-9.471407 -7.327067,-10.441404 -1.206623,-0.320017 -3.959854,-0.437098 -5.429569,-0.230891 -6.481095,0.909323 -8.997049,6.08945 -9.483031,19.524724 l -0.08727,2.412707 -1.149494,-0.408218 c -0.632222,-0.224519 -1.588798,-0.510676 -2.125724,-0.635904 -1.11471,-0.259985 -1.076485,-0.20585 -1.421789,-2.013524 -0.457425,-2.394629 -0.748503,-5.996492 -0.950362,-11.760024 -0.09581,-2.735488 -0.09174,-3.771578 0.01587,-4.040611 0.0796,-0.198993 0.358523,-0.958427 0.619839,-1.687631 1.645442,-4.591621 2.577933,-7.106357 3.033498,-8.18072 0.655822,-1.546635 1.712042,-3.559919 2.41796,-4.608927 l 0.544205,-0.8087 2.65165,0.782094 c 2.720141,0.802295 3.990973,1.233074 4.987629,1.690679 1.102097,0.506017 2.955503,0.28612 5.555839,-0.65917 0.659755,-0.239839 2.193925,-0.834618 3.409264,-1.321732 2.948339,-1.181707 2.77792,-1.141852 2.77792,-0.649659 0,0.739167 0.637066,3.572995 1.146889,5.101647 0.629184,1.886543 1.403911,3.532312 2.335256,4.960823 1.454595,2.231083 1.56173,2.694827 1.699254,7.355468 0.113196,3.836116 0.256983,5.066736 0.762025,6.521882 0.513944,1.480794 0.652319,2.435392 0.656165,4.526661 0.0045,2.448715 -0.254918,5.814042 -0.48255,6.259808 -0.174351,0.341428 -1.004355,1.1436 -1.405309,1.358185 -0.219818,0.117642 -0.262474,-0.03563 -0.655974,-2.357125 z"
         id="path3030"
         inkscape:connector-curvature="0"
         transform="translate(3.6613995,2.3878854)" />
      <path
         style="fill:url(#radialGradient3838);fill-opacity:1"
         d="M 38.540742,40.789965 C 37.65552,40.367972 37.223495,40.225002 33.048037,38.972278 30.89515,38.326367 28.795672,37.662907 28.38253,37.497922 l -0.751165,-0.299973 0.05669,-0.757615 C 27.963167,32.763416 27.298949,26.035137 26.3554,22.941043 c -0.103963,-0.340915 -0.189023,-0.862795 -0.189023,-1.159734 0,-1.343221 -0.674192,-3.443213 -2.018693,-6.287875 -0.422493,-0.893902 -0.742677,-1.650768 -0.711519,-1.681926 0.154979,-0.154978 1.855425,1.177743 4.369294,3.424425 2.089068,1.867031 3.529434,2.96968 4.556446,3.488114 0.445186,0.22473 1.442609,0.513862 2.656641,0.770107 1.673834,0.353295 2.198151,0.410623 3.774738,0.412725 2.10901,0.0028 3.383508,-0.261246 5.940795,-1.230845 0.795271,-0.301528 1.67323,-0.590259 1.951022,-0.641626 1.272506,-0.235299 1.967148,-0.87412 3.284881,-3.020911 0.81763,-1.332048 1.625122,-2.18809 2.862582,-3.034696 0.567479,-0.388239 1.047471,-0.690199 1.066648,-0.671021 0.110928,0.110927 -0.423946,3.280115 -0.907064,5.374472 -0.310197,1.344733 -0.621225,3.020955 -0.691171,3.724938 -0.06995,0.703983 -0.209251,1.706127 -0.309565,2.226987 -0.24105,1.251595 -0.241549,4.424583 -10e-4,6.467471 0.192227,1.632627 0.710857,4.609821 0.938633,5.388231 0.15882,0.542752 0.0912,0.644935 -0.426811,0.644935 -0.835511,0 -2.853327,0.627306 -6.006519,1.867328 -4.102732,1.613438 -5.113401,1.930722 -6.376588,2.001831 -0.848683,0.04778 -1.100981,0.01357 -1.578364,-0.214008 l -7e-6,0 z m 4.924493,-2.842595 c 2.35559,-0.532 3.391681,-0.914531 4.009043,-1.480162 0.399157,-0.365709 0.355458,-0.530815 -0.184345,-0.696485 -0.41456,-0.127232 -0.543559,-0.107025 -1.12133,0.175652 -0.359083,0.175683 -1.440959,0.520438 -2.404169,0.766122 -2.035429,0.519173 -3.363416,0.580223 -5.377635,0.247219 -1.668495,-0.275846 -2.729726,-0.644788 -3.930434,-1.366435 -1.073854,-0.645405 -1.034411,-0.646785 -1.411818,0.04942 -0.182523,0.336701 -0.179081,0.341562 0.559553,0.790259 1.632576,0.991738 2.821466,1.384495 5.18918,1.714281 1.944589,0.270851 2.737999,0.236908 4.671955,-0.199866 l 0,0 z m 1.894036,-4.232431 c 0.742647,-0.336684 1.092588,-0.674899 1.474331,-1.424934 0.914724,-1.797216 0.886381,-4.92872 -0.06291,-6.950292 -0.671681,-1.430388 -1.453287,-2.051903 -2.748553,-2.185586 -0.563684,-0.05818 -0.782484,-0.01475 -1.341279,0.266236 -1.317088,0.662279 -2.091823,2.083583 -2.210258,4.054868 -0.155671,2.591059 1.021561,5.415246 2.606565,6.253166 0.602192,0.318351 1.562704,0.312686 2.282103,-0.01346 l 0,0 z m -9.078647,-0.0094 c 1.697902,-0.578717 2.765194,-2.417077 2.765194,-4.762916 0,-1.836649 -0.52413,-3.294572 -1.596611,-4.441141 -1.11073,-1.18746 -2.214167,-1.3929 -3.666063,-0.682553 -1.380909,0.675615 -2.102541,2.079198 -2.107065,4.098263 -0.0056,2.514481 1.207483,4.782714 3.013456,5.63443 0.714042,0.33675 0.979378,0.362418 1.591089,0.15392 l 0,-3e-6 z"
         id="path3808"
         inkscape:connector-curvature="0"
         transform="translate(3.6613995,2.3878854)" />
      <path
         style="fill:#22c550;fill-opacity:1"
         d="m 22.774086,51.2745 c -0.919263,-1.417865 -1.686555,-2.321324 -3.849714,-4.532901 -2.186333,-2.23527 -3.542731,-3.173207 -5.221159,-3.610382 -0.968492,-0.25226 -2.231446,-0.245528 -2.627544,0.014 -0.454386,0.29773 -1.1579715,0.258413 -1.5236669,-0.08514 C 8.9278754,42.47374 9.2989027,41.886855 10.54772,41.485067 12.572366,40.833666 12.917147,39.66427 11.484143,38.308995 11.117547,37.962283 10.235269,37.290889 9.5235268,36.817008 8.8117842,36.343127 8.2495477,35.894052 8.2741123,35.819063 c 0.024565,-0.07499 0.1880758,-0.153506 0.3633582,-0.174483 0.2277416,-0.02725 0.7655091,0.261037 1.8842985,1.010153 1.550739,1.03834 1.573194,1.048292 2.365142,1.048292 0.741484,0 0.825976,-0.02959 1.163619,-0.407476 0.502401,-0.562284 0.802965,-1.653706 0.70194,-2.548917 -0.04378,-0.387976 -0.284876,-1.228407 -0.535761,-1.867625 -0.414652,-1.056471 -0.479947,-1.55257 -0.204346,-1.55257 0.14917,0 2.119956,3.587321 2.489087,4.530758 0.173408,0.443202 0.456683,1.437571 0.629499,2.209709 0.336038,1.501408 0.261853,1.385581 1.52657,2.383494 0.330771,0.260991 1.375893,1.180051 2.322495,2.042355 1.969824,1.794406 3.034434,2.665942 4.068062,3.330297 0.398994,0.256449 0.728604,0.523713 0.732467,0.593918 0.0074,0.133723 -1.729147,5.010812 -2.029358,5.699592 l -0.173328,0.397669 -0.803771,-1.239729 0,0 z"
         id="path3810"
         inkscape:connector-curvature="0"
         transform="translate(3.6613995,2.3878854)" />
      <path
         style="fill:#22c550;fill-opacity:1"
         d="m 56.218411,53.258641 c 0,-0.231224 -0.108166,-0.832401 -0.240368,-1.335951 -0.17239,-0.656621 -0.199173,-0.928246 -0.0947,-0.960454 0.08012,-0.0247 0.372951,-0.112944 0.650743,-0.196096 0.842044,-0.252051 2.132585,-0.981334 2.994144,-1.691988 1.848928,-1.525082 3.464521,-4.465019 3.820194,-6.95171 0.05804,-0.40577 0.300493,-0.98789 0.678592,-1.629256 0.674867,-1.14477 2.459148,-3.137943 2.521795,-2.81703 0.02171,0.111199 -0.191371,0.774733 -0.473509,1.474519 -0.676404,1.677683 -0.659613,2.156103 0.09543,2.719229 0.280527,0.209222 0.533532,0.252178 1.475028,0.250438 l 1.136422,-0.0021 -0.308887,0.619451 c -0.363159,0.728293 -0.476911,1.883692 -0.231193,2.348283 0.237329,0.448733 0.950691,0.887674 1.442636,0.887674 0.232798,0 0.423269,0.05268 0.423269,0.117076 0,0.249063 -0.98162,0.908145 -1.828001,1.227363 -1.304852,0.492132 -1.993331,0.861198 -2.622736,1.405945 -0.308875,0.267329 -0.754908,0.563588 -0.991183,0.658352 -0.630221,0.252767 -1.403467,0.799786 -2.881742,2.038637 -1.590675,1.333046 -2.548023,1.846103 -3.741001,2.004853 -0.482854,0.06425 -1.090996,0.147503 -1.351426,0.184998 -0.466004,0.06709 -0.473509,0.06151 -0.473509,-0.352232 z"
         id="path3812"
         inkscape:connector-curvature="0"
         transform="translate(3.6613995,2.3878854)" />
      <path
         style="fill:#22c550;fill-opacity:1"
         d="m 55.810763,83.872368 c -0.695333,-0.640783 -1.075492,-1.393667 -1.921823,-3.80607 -0.328915,-0.937548 -0.706425,-1.892549 -0.83891,-2.122225 -0.132486,-0.229676 -0.240884,-0.438122 -0.240884,-0.463214 0,-0.02509 0.362253,-0.166172 0.805006,-0.313511 2.200737,-0.732358 3.86695,-2.351202 3.86695,-3.757015 0,-0.349841 0.03405,-0.806333 0.07567,-1.014426 0.07438,-0.371879 0.08464,-0.376367 0.599778,-0.2623 0.706011,0.156332 1.425669,0.513903 2.180147,1.083232 1.087674,0.820761 3.079051,2.481658 3.079051,2.568066 0,0.15188 -0.775083,0.240782 -2.099223,0.240782 -0.720523,0 -1.310042,0.03977 -1.310042,0.08839 0,0.04861 0.282331,0.805263 0.627402,1.681445 0.654037,1.66069 1.00162,2.925027 0.914651,3.327062 -0.08525,0.394102 -0.803031,0.179785 -2.879631,-0.859813 -1.048185,-0.524747 -1.943117,-0.954085 -1.988738,-0.954085 -0.04562,0 -0.09001,0.752879 -0.09863,1.673065 -0.0086,0.920186 -0.05124,2.070813 -0.0947,2.556949 l -0.07902,0.883883 -0.597052,-0.550212 z"
         id="path3814"
         inkscape:connector-curvature="0"
         transform="translate(3.6613995,2.3878854)" />
      <path
         style="fill:#22c550;fill-opacity:1"
         d="m 49.399882,76.288092 c -0.590308,-0.200057 -1.982425,-0.800697 -3.093593,-1.334755 -2.498588,-1.200889 -3.658485,-1.675558 -4.470847,-1.829618 -0.897756,-0.170257 -2.156115,0.08213 -4.957469,0.9943 -3.16408,1.030284 -3.395793,1.051573 -4.872405,0.447649 l -1.167239,-0.47739 0.0012,-1.39884 c 0.0028,-3.175655 0.422338,-8.098894 0.893989,-10.490214 1.142058,-5.790346 3.135637,-8.447756 6.978237,-9.301883 0.980539,-0.217952 1.440592,-0.246637 3.048827,-0.190099 2.823351,0.09925 3.945197,0.481738 5.392884,1.838652 2.007175,1.881322 3.120793,4.776853 4.521757,11.757075 1.189216,5.925196 1.801346,9.62237 1.612472,9.7391 -0.272505,0.168418 -2.055481,0.615095 -2.444339,0.612364 -0.203614,-0.0014 -0.853188,-0.166283 -1.443495,-0.366341 l 0,0 z"
         id="path3816"
         inkscape:connector-curvature="0"
         transform="translate(3.6613995,2.3878854)" />
      <path
         style="fill:#22c550;fill-opacity:1"
         d="m 30.773795,82.419821 c -0.677209,-0.922313 -1.361621,-1.469893 -1.83629,-1.469168 -0.366214,5.6e-4 -0.744584,0.222571 -2.013518,1.181449 l -0.947018,0.715619 -0.140491,-0.475261 c -0.07727,-0.261394 -0.211577,-0.976607 -0.29846,-1.589363 -0.139804,-0.985989 -0.193694,-1.130379 -0.468643,-1.255654 -0.238602,-0.108715 -0.373042,-0.102603 -0.579523,0.02635 -0.578167,0.361071 -2.199228,1.123292 -2.65398,1.247898 -0.459149,0.125811 -0.475782,0.119751 -0.395725,-0.144193 0.513075,-1.691571 1.769162,-3.998055 3.312736,-6.082997 0.901175,-1.217237 0.670128,-1.161041 2.486777,-0.604841 0.555584,0.170102 1.733379,0.595754 2.617321,0.945891 1.580731,0.626143 1.608772,0.644145 1.704633,1.094348 0.137316,0.644899 0.0917,6.581437 -0.05337,6.945966 -0.114838,0.288556 -0.145314,0.266313 -0.734444,-0.536041 l 0,0 z"
         id="path3818"
         inkscape:connector-curvature="0"
         transform="translate(3.6613995,2.3878854)" />
      <path
         style="fill:#d6e5bf;fill-opacity:1"
         d="m 43.236809,32.406486 c -1.324108,-1.196252 -2.029023,-4.091831 -1.463883,-6.013192 0.34546,-1.174492 1.246717,-2.137925 1.999953,-2.137925 1.418109,0 2.43398,1.701925 2.56256,4.293149 0.100405,2.02344 -0.319432,3.399943 -1.222638,4.008613 -0.644955,0.434636 -1.285051,0.383235 -1.875992,-0.150645 z m -0.07148,-3.601137 c 0.505793,-0.601101 1.760293,-0.683236 1.906325,-0.124812 0.05165,0.197522 0.175028,0.246788 0.61802,0.246788 0.622872,0 0.671082,-0.105466 0.373631,-0.817366 -0.55528,-1.328973 -3.212702,-1.197682 -4.038039,0.199502 -0.196894,0.333316 -0.192367,0.34639 0.208984,0.603423 0.52982,0.339306 0.557807,0.336074 0.931079,-0.107535 z"
         id="path3820"
         inkscape:connector-curvature="0"
         transform="translate(3.6613995,2.3878854)" />
      <path
         style="fill:#d6e5bf;fill-opacity:1"
         d="m 35.161267,32.506486 c -0.88788,-0.437659 -1.857345,-1.747607 -2.125963,-2.872614 -0.0847,-0.354733 -0.07485,-0.364197 0.300877,-0.289052 0.353309,0.07066 0.395955,0.04349 0.471497,-0.300451 0.04568,-0.207977 0.221668,-0.468964 0.391086,-0.579971 0.634339,-0.415634 2.159053,0.130446 2.389244,0.855713 0.07428,0.234041 0.148167,0.256529 0.603573,0.183707 0.285412,-0.04564 0.540017,-0.104067 0.565789,-0.129839 0.131016,-0.131016 -0.505307,-1.211239 -0.883359,-1.499593 -1.327448,-1.012494 -3.115295,-0.934417 -3.871104,0.169055 l -0.302703,0.441942 0.07684,-0.877745 c 0.138317,-1.580034 0.861509,-2.623997 2.063789,-2.97918 0.689681,-0.203749 1.115803,-0.03381 1.81366,0.723271 0.811625,0.880509 1.150971,1.772891 1.225269,3.222099 0.09626,1.877572 -0.429205,3.176488 -1.55096,3.83388 -0.616571,0.361335 -0.632203,0.362657 -1.167534,0.09878 l 0,0 z"
         id="path3822"
         inkscape:connector-curvature="0"
         transform="translate(3.6613995,2.3878854)" />
    </g>
  </g>
</svg>
